<svg xmlns="http://www.w3.org/2000/svg" viewBox="0 0 24 24" fill="currentColor"><g clip-path="url(#a)"><path d="M7 2H6C3 2 2 3.79 2 6v15a1 1 0 0 0 1.6.8l1.71-1.28a1.007 1.007 0 0 1 1.32.1l1.66 1.67a1.008 1.008 0 0 0 1.42 0l1.68-1.68a.99.99 0 0 1 1.3-.09l1.71 1.28A1 1 0 0 0 16 21V4a2.006 2.006 0 0 1 2-2H7ZM5.97 14.01a1 1 0 1 1 0-2 1 1 0 0 1 0 2Zm0-4a1 1 0 1 1 0-2 1 1 0 0 1 0 2ZM12 13.76H9a.75.75 0 1 1 0-1.5h3a.75.75 0 1 1 0 1.5Zm0-4H9a.75.75 0 0 1 0-1.5h3a.75.75 0 1 1 0 1.5Z"/><path d="M18.01 2v1.5a2.517 2.517 0 0 1 1.75.72c.472.472.738 1.112.74 1.78v2.42c0 .74-.33 1.08-1.08 1.08H17.5V4.01a.512.512 0 0 1 .51-.51V2Zm0 0A2.01 2.01 0 0 0 16 4.01V11h3.42A2.4 2.4 0 0 0 22 8.42V6a3.993 3.993 0 0 0-3.99-4Z"/></g><defs><clipPath id="a"><path d="M0 0h24v24H0z"/></clipPath></defs></svg>