<svg xmlns="http://www.w3.org/2000/svg" viewBox="0 0 24 24" fill="currentColor"><g clip-path="url(#a)"><path d="M5 15a4 4 0 0 0-4 4c-.001.727.2 1.44.58 2.06a3.985 3.985 0 0 0 6.84 0c.38-.62.581-1.333.58-2.06a4 4 0 0 0-4-4Zm1.49 4.73h-.74v.78a.75.75 0 1 1-1.5 0v-.78h-.74a.75.75 0 1 1 0-1.5h.74v-.71a.75.75 0 1 1 1.5 0v.71h.74a.75.75 0 1 1 0 1.5ZM21.5 12.5H19a2 2 0 0 0 0 4h2.5a.5.5 0 0 0 .5-.5v-3a.5.5 0 0 0-.5-.5Zm-4.97-7.099a.44.44 0 0 1-.37.74l-8.28-.01a.538.538 0 0 1-.38-.92l1.75-1.763a3.8 3.8 0 0 1 5.35 0l1.89 1.91.04.043Z"/><path d="M21.87 18.66A4.669 4.669 0 0 1 17.1 22h-6.5a.557.557 0 0 1-.48-.79 5.8 5.8 0 0 0 .49-2.21 5.51 5.51 0 0 0-5.5-5.5 5.4 5.4 0 0 0-2.18.46.579.579 0 0 1-.82-.49V12A4.654 4.654 0 0 1 6.3 7.06 5.1 5.1 0 0 1 7.1 7h10c.25-.004.502.013.75.05a4.541 4.541 0 0 1 4.02 3.29.507.507 0 0 1-.48.66H19.1a3.493 3.493 0 0 0-3.42 4.23A3.555 3.555 0 0 0 19.2 18h2.19a.506.506 0 0 1 .48.66Z"/></g><defs><clipPath id="a"><path d="M0 0h24v24H0z"/></clipPath></defs></svg>