<svg xmlns="http://www.w3.org/2000/svg" viewBox="0 0 24 24" fill="currentColor"><g clip-path="url(#a)"><path d="M14.85 3.95v3.8h-1.5v-3.8a.4.4 0 0 0-.55-.37L4.87 6.57A1.343 1.343 0 0 0 4 7.84v.67a3.736 3.736 0 0 0-1.5 3V7.84a2.848 2.848 0 0 1 1.84-2.67l7.94-3a1.905 1.905 0 0 1 2.57 1.78Zm6.645 10.55v1a.5.5 0 0 1-.49.5H19.55a1.035 1.035 0 0 1-1.055-.91.999.999 0 0 1 .29-.8.951.951 0 0 1 .705-.29h1.505a.5.5 0 0 1 .5.5Z"/><path d="M19.48 12.95h1.02a1 1 0 0 0 1-1v-.44a3.768 3.768 0 0 0-3.76-3.76H6.26A3.706 3.706 0 0 0 4 8.51a3.736 3.736 0 0 0-1.5 3v6.73A3.768 3.768 0 0 0 6.26 22h11.48a3.768 3.768 0 0 0 3.76-3.76v-.19a1 1 0 0 0-1-1h-.87a2.17 2.17 0 0 1-2.13-1.52 2.06 2.06 0 0 1 1.98-2.58Zm-5.48-.2H7a.75.75 0 1 1 0-1.5h7a.75.75 0 1 1 0 1.5Z"/></g><defs><clipPath id="a"><path d="M0 0h24v24H0z"/></clipPath></defs></svg>