<svg xmlns="http://www.w3.org/2000/svg" fill="none" viewBox="0 0 24 24" stroke="currentColor"><g stroke-linecap="round" stroke-linejoin="round" clip-path="url(#a)"><path stroke-width="1.5" d="M22 6v2.42A2.4 2.4 0 0 1 19.42 11H16V4.01A2.02 2.02 0 0 1 18.02 2 3.995 3.995 0 0 1 22 6v0Z"/><path stroke-width="1.5" d="M2 7v14a1 1 0 0 0 1.6.8l1.71-1.28a1.007 1.007 0 0 1 1.32.1l1.66 1.67a1.008 1.008 0 0 0 1.42 0l1.68-1.68a.99.99 0 0 1 1.3-.09l1.71 1.28A1 1 0 0 0 16 21V4a2.006 2.006 0 0 1 2-2H6C3 2 2 3.79 2 6v1Zm7 6.01h3m-3-4h3"/><path stroke-width="2" d="M5.996 13h.009m-.009-4h.009"/></g><defs><clipPath id="a"><path fill="#fff" d="M0 0h24v24H0z"/></clipPath></defs></svg>