<svg xmlns="http://www.w3.org/2000/svg" fill="none" viewBox="0 0 24 24" stroke="currentColor"><g stroke-linecap="round" stroke-linejoin="round" stroke-width="1.5" clip-path="url(#a)"><path d="M18.04 13.55a2.01 2.01 0 0 0-.6 1.63 2.132 2.132 0 0 0 2.16 1.87h1.9v1.19A3.768 3.768 0 0 1 17.74 22H6.26a3.768 3.768 0 0 1-3.76-3.76v-6.73a3.768 3.768 0 0 1 3.76-3.76h11.48a3.768 3.768 0 0 1 3.76 3.76v1.44h-2.02a1.992 1.992 0 0 0-1.44.6v0Z"/><path d="M2.5 12.41V7.84a2.848 2.848 0 0 1 1.84-2.67l7.94-3a1.9 1.9 0 0 1 2.57 1.776v3.8m7.709 6.224v2.06a1.027 1.027 0 0 1-1 1.02h-1.96a2.132 2.132 0 0 1-2.16-1.87 2.008 2.008 0 0 1 .6-1.63 1.993 1.993 0 0 1 1.44-.6h2.08a1.027 1.027 0 0 1 1 1.02v0ZM7 12h7"/></g><defs><clipPath id="a"><path fill="#fff" d="M0 0h24v24H0z"/></clipPath></defs></svg>