<svg xmlns="http://www.w3.org/2000/svg" fill="none" viewBox="0 0 24 24" stroke="currentColor"><g stroke-linecap="round" stroke-linejoin="round" stroke-width="1.5" clip-path="url(#a)"><path d="M17.751 7.05a4.572 4.572 0 0 0-.75-.05h-10c-.271 0-.542.02-.81.06.15-.29.346-.553.58-.78l3.25-3.26a3.525 3.525 0 0 1 4.96 0l1.75 1.77c.614.597.98 1.405 1.02 2.26v0ZM9 19c.001.727-.2 1.44-.58 2.06a3.985 3.985 0 0 1-6.84 0A3.92 3.92 0 0 1 1 19a4 4 0 1 1 8 0v0Zm-2.508-.021h-2.98M5 17.52v2.99"/><path d="M22 12v5a4.724 4.724 0 0 1-5 5H7.63c.315-.266.583-.584.79-.94.38-.62.581-1.333.58-2.06a4 4 0 0 0-7-2.64V12a4.654 4.654 0 0 1 4.19-4.94C6.458 7.02 6.729 7 7 7h10c.25-.004.502.013.75.05A4.664 4.664 0 0 1 22 12Z"/><path d="M22 12.5h-3a2 2 0 0 0 0 4h3"/></g><defs><clipPath id="a"><path fill="#fff" d="M0 0h24v24H0z"/></clipPath></defs></svg>