<svg width="24" height="24" viewBox="0 0 24 24" fill="none" xmlns="http://www.w3.org/2000/svg">
<g id="receiptItemS" clip-path="url(#clip0_22_2)">
<g id="vuesax/bold/receipt-item">
<g id="receipt-item">
<path id="Vector" d="M7 2H6C3 2 2 3.79 2 6V21C2 21.1857 2.05171 21.3678 2.14935 21.5257C2.24698 21.6837 2.38668 21.8114 2.55279 21.8944C2.71889 21.9775 2.90484 22.0126 3.08981 21.996C3.27477 21.9793 3.45143 21.9114 3.6 21.8L5.31 20.52C5.50496 20.3744 5.74608 20.3042 5.98874 20.3226C6.2314 20.341 6.4592 20.4466 6.63 20.62L8.29 22.29C8.47881 22.4774 8.73401 22.5825 9 22.5825C9.26599 22.5825 9.52119 22.4774 9.71 22.29L11.39 20.61C11.5592 20.4404 11.7841 20.3378 12.0231 20.3213C12.2621 20.3047 12.499 20.3753 12.69 20.52L14.4 21.8C14.5486 21.9114 14.7252 21.9793 14.9102 21.996C15.0952 22.0126 15.2811 21.9775 15.4472 21.8944C15.6133 21.8114 15.753 21.6837 15.8507 21.5257C15.9483 21.3678 16 21.1857 16 21V4C16.0016 3.47005 16.2128 2.96227 16.5875 2.58753C16.9623 2.2128 17.4701 2.00158 18 2L7 2ZM5.97 14.01C5.77222 14.01 5.57888 13.9514 5.41443 13.8415C5.24998 13.7316 5.12181 13.5754 5.04612 13.3927C4.97043 13.21 4.95063 13.0089 4.98921 12.8149C5.0278 12.6209 5.12304 12.4427 5.26289 12.3029C5.40275 12.163 5.58093 12.0678 5.77491 12.0292C5.96889 11.9906 6.16996 12.0104 6.35268 12.0861C6.53541 12.1618 6.69159 12.29 6.80147 12.4544C6.91135 12.6189 6.97 12.8122 6.97 13.01C6.97 13.1413 6.94413 13.2714 6.89388 13.3927C6.84362 13.514 6.76997 13.6242 6.67711 13.7171C6.58425 13.81 6.47401 13.8836 6.35268 13.9339C6.23136 13.9841 6.10132 14.01 5.97 14.01ZM5.97 10.01C5.77222 10.01 5.57888 9.95135 5.41443 9.84147C5.24998 9.73159 5.12181 9.57541 5.04612 9.39268C4.97043 9.20996 4.95063 9.00889 4.98921 8.81491C5.0278 8.62093 5.12304 8.44275 5.26289 8.30289C5.40275 8.16304 5.58093 8.0678 5.77491 8.02921C5.96889 7.99063 6.16996 8.01043 6.35268 8.08612C6.53541 8.16181 6.69159 8.28998 6.80147 8.45443C6.91135 8.61888 6.97 8.81222 6.97 9.01C6.97 9.14132 6.94413 9.27136 6.89388 9.39268C6.84362 9.51401 6.76997 9.62425 6.67711 9.71711C6.58425 9.80997 6.47401 9.88362 6.35268 9.93388C6.23136 9.98413 6.10132 10.01 5.97 10.01ZM12 13.76H9C8.80109 13.76 8.61032 13.681 8.46967 13.5403C8.32902 13.3997 8.25 13.2089 8.25 13.01C8.25 12.8111 8.32902 12.6203 8.46967 12.4797C8.61032 12.339 8.80109 12.26 9 12.26H12C12.1989 12.26 12.3897 12.339 12.5303 12.4797C12.671 12.6203 12.75 12.8111 12.75 13.01C12.75 13.2089 12.671 13.3997 12.5303 13.5403C12.3897 13.681 12.1989 13.76 12 13.76ZM12 9.76H9C8.80109 9.76 8.61032 9.68098 8.46967 9.54033C8.32902 9.39968 8.25 9.20891 8.25 9.01C8.25 8.81109 8.32902 8.62032 8.46967 8.47967C8.61032 8.33902 8.80109 8.26 9 8.26H12C12.1989 8.26 12.3897 8.33902 12.5303 8.47967C12.671 8.62032 12.75 8.81109 12.75 9.01C12.75 9.20891 12.671 9.39968 12.5303 9.54033C12.3897 9.68098 12.1989 9.76 12 9.76Z" fill="#292D32"/>
<path id="Vector_2" d="M18.01 2V3.5C18.6648 3.50324 19.2925 3.76151 19.76 4.22C20.2318 4.69249 20.4978 5.33228 20.5 6V8.42C20.5 9.16 20.17 9.5 19.42 9.5H17.5V4.01C17.5005 3.8749 17.5544 3.74549 17.65 3.64996C17.7455 3.55443 17.8749 3.50053 18.01 3.5V2ZM18.01 2C17.4769 2 16.9657 2.21177 16.5887 2.58872C16.2118 2.96566 16 3.47691 16 4.01V11H19.42C19.7657 11.0271 20.1132 10.9789 20.4385 10.8588C20.7638 10.7387 21.0592 10.5496 21.3044 10.3044C21.5496 10.0592 21.7387 9.76377 21.8588 9.43846C21.9789 9.11316 22.0271 8.7657 22 8.42V6C22.0007 5.47537 21.898 4.95575 21.6978 4.4708C21.4977 3.98585 21.2039 3.54508 20.8334 3.17364C20.4629 2.80221 20.0229 2.50739 19.5384 2.30601C19.054 2.10464 18.5346 2.00066 18.01 2V2Z" fill="#292D32"/>
</g>
</g>
</g>
<defs>
<clipPath id="clip0_22_2">
<rect width="24" height="24" fill="white"/>
</clipPath>
</defs>
</svg>
