<svg width="24" height="24" viewBox="0 0 24 24" fill="none" xmlns="http://www.w3.org/2000/svg">
<g id="walletCheckS" clip-path="url(#clip0_22_5)">
<g id="vuesax/bold/wallet-check">
<g id="wallet-check">
<path id="Vector" d="M5.00001 15C3.93914 15 2.92173 15.4214 2.17158 16.1716C1.42143 16.9217 1.00001 17.9391 1.00001 19C0.998583 19.7272 1.1994 20.4404 1.58001 21.06C1.93371 21.6514 2.43474 22.141 3.03416 22.4809C3.63357 22.8209 4.3109 22.9996 5.00001 22.9996C5.68911 22.9996 6.36644 22.8209 6.96586 22.4809C7.56528 22.141 8.0663 21.6514 8.42001 21.06C8.80062 20.4404 9.00143 19.7272 9.00001 19C9.00001 17.9391 8.57858 16.9217 7.82843 16.1716C7.07829 15.4214 6.06087 15 5.00001 15V15ZM6.97001 18.67L4.84001 20.64C4.70063 20.7675 4.5189 20.8388 4.33001 20.84C4.23148 20.8404 4.13388 20.8211 4.04288 20.7833C3.95188 20.7455 3.86932 20.69 3.80001 20.62L2.81001 19.63C2.73632 19.5613 2.67722 19.4785 2.63623 19.3865C2.59523 19.2945 2.57319 19.1952 2.57142 19.0945C2.56964 18.9938 2.58816 18.8938 2.62588 18.8004C2.66361 18.707 2.71975 18.6222 2.79097 18.551C2.86219 18.4797 2.94702 18.4236 3.04041 18.3859C3.1338 18.3482 3.23383 18.3296 3.33453 18.3314C3.43523 18.3332 3.53455 18.3552 3.62655 18.3962C3.71854 18.4372 3.80135 18.4963 3.87001 18.57L4.35001 19.05L5.95001 17.57C6.02223 17.503 6.10695 17.4509 6.19931 17.4167C6.29166 17.3825 6.38986 17.3668 6.48829 17.3705C6.58672 17.3742 6.68346 17.3972 6.77297 17.4383C6.86249 17.4794 6.94303 17.5378 7.01001 17.61C7.07698 17.6822 7.12907 17.7669 7.16331 17.8593C7.19755 17.9517 7.21326 18.0499 7.20954 18.1483C7.20583 18.2467 7.18276 18.3434 7.14166 18.433C7.10056 18.5225 7.04223 18.603 6.97001 18.67Z" fill="#292D32"/>
<path id="Vector_2" d="M21.5 12.5H19C18.4696 12.5 17.9609 12.7107 17.5858 13.0858C17.2107 13.4609 17 13.9696 17 14.5C17 15.0304 17.2107 15.5391 17.5858 15.9142C17.9609 16.2893 18.4696 16.5 19 16.5H21.5C21.6326 16.5 21.7598 16.4473 21.8536 16.3536C21.9473 16.2598 22 16.1326 22 16V13C22 12.8674 21.9473 12.7402 21.8536 12.6464C21.7598 12.5527 21.6326 12.5 21.5 12.5V12.5Z" fill="#292D32"/>
<path id="Vector_3" d="M16.53 5.401C16.5923 5.46655 16.6328 5.5497 16.6461 5.63911C16.6594 5.72852 16.6449 5.81987 16.6045 5.90073C16.564 5.98158 16.4997 6.04802 16.4202 6.09101C16.3406 6.134 16.2498 6.15146 16.16 6.141L7.88001 6.131C7.77332 6.13123 7.66896 6.09973 7.58021 6.0405C7.49146 5.98128 7.42233 5.897 7.3816 5.79838C7.34087 5.69977 7.33038 5.59127 7.35146 5.48668C7.37255 5.38209 7.42425 5.28613 7.50001 5.211L9.25001 3.448C9.96165 2.74267 10.9231 2.34695 11.925 2.34695C12.927 2.34695 13.8884 2.74267 14.6 3.448L16.49 5.358L16.53 5.401Z" fill="#292D32"/>
<path id="Vector_4" d="M21.87 18.66C21.5709 19.6748 20.9361 20.5579 20.0695 21.1647C19.2029 21.7715 18.1559 22.0661 17.1 22H10.6C10.5088 21.9958 10.42 21.9692 10.3415 21.9227C10.2629 21.8761 10.1971 21.8109 10.1496 21.7328C10.1022 21.6548 10.0747 21.5663 10.0696 21.4751C10.0644 21.384 10.0817 21.2929 10.12 21.21C10.4269 20.5127 10.5934 19.7617 10.61 19C10.6074 17.5421 10.0271 16.1447 8.99618 15.1138C7.9653 14.083 6.56789 13.5027 5.11001 13.5C4.35927 13.5001 3.61681 13.6568 2.93001 13.96C2.84456 13.9994 2.75081 14.0173 2.65688 14.0122C2.56294 14.0072 2.47165 13.9793 2.3909 13.9311C2.31014 13.8828 2.24237 13.8156 2.19343 13.7353C2.14448 13.655 2.11586 13.5639 2.11001 13.47V12C2.02996 10.7936 2.4225 9.60347 3.20455 8.68144C3.98659 7.75941 5.09675 7.1779 6.30001 7.06001C6.56469 7.01904 6.83219 6.99898 7.10001 7.00001H17.1C17.351 6.99607 17.6018 7.0128 17.85 7.05001C18.7761 7.12143 19.6581 7.47513 20.3769 8.06342C21.0957 8.65172 21.6169 9.4463 21.87 10.34C21.894 10.4157 21.8998 10.496 21.8871 10.5744C21.8744 10.6527 21.8434 10.727 21.7967 10.7912C21.75 10.8554 21.6889 10.9078 21.6182 10.9441C21.5476 10.9803 21.4694 10.9995 21.39 11H19.1C18.5783 10.9994 18.0631 11.1155 17.5922 11.34C17.1213 11.5645 16.7066 11.8916 16.3786 12.2973C16.0506 12.7029 15.8176 13.1769 15.6967 13.6844C15.5758 14.1919 15.5701 14.72 15.68 15.23C15.86 16.0254 16.308 16.7348 16.9489 17.2391C17.5898 17.7434 18.3846 18.0121 19.2 18H21.39C21.4695 18.0003 21.5478 18.0194 21.6185 18.0556C21.6893 18.0918 21.7505 18.1441 21.7972 18.2084C21.844 18.2727 21.8749 18.3471 21.8876 18.4255C21.9002 18.504 21.8942 18.5843 21.87 18.66Z" fill="#292D32"/>
</g>
</g>
</g>
<defs>
<clipPath id="clip0_22_5">
<rect width="24" height="24" fill="white"/>
</clipPath>
</defs>
</svg>
