<svg width="24" height="24" viewBox="0 0 24 24" fill="none" xmlns="http://www.w3.org/2000/svg">
<g id="walletEmptyS" clip-path="url(#clip0_22_6)">
<g id="vuesax/bold/empty-wallet">
<g id="empty-wallet">
<path id="Vector" d="M14.85 3.94999V7.74999H13.35V3.94999C13.3499 3.88456 13.3337 3.82016 13.3029 3.76244C13.2721 3.70471 13.2276 3.65543 13.1733 3.61891C13.119 3.58239 13.0566 3.55974 12.9915 3.55295C12.9264 3.54617 12.8607 3.55545 12.8 3.57999L4.87001 6.56999C4.61229 6.66695 4.3906 6.8408 4.23498 7.06796C4.07937 7.29513 3.99734 7.56464 4.00001 7.83999V8.50999C3.53346 8.85853 3.15486 9.31131 2.89442 9.83219C2.63398 10.3531 2.49892 10.9276 2.50001 11.51V7.83999C2.49872 7.26061 2.67416 6.69462 3.00292 6.21756C3.33169 5.74049 3.79813 5.37505 4.34001 5.16999L12.28 2.16999C12.4947 2.09151 12.7214 2.05091 12.95 2.04999C13.4535 2.05131 13.936 2.25191 14.2921 2.60794C14.6481 2.96398 14.8487 3.44648 14.85 3.94999Z" fill="#292D32"/>
<path id="Vector_2" d="M21.495 14.5V15.5C21.495 15.6309 21.4437 15.7566 21.3521 15.8501C21.2605 15.9435 21.1359 15.9974 21.005 16H19.55C19.2924 16.0068 19.0416 15.9174 18.8464 15.7491C18.6513 15.5808 18.526 15.3458 18.495 15.09C18.4815 14.9435 18.5005 14.7959 18.5506 14.6576C18.6008 14.5193 18.6808 14.3938 18.785 14.29C18.8761 14.1956 18.9858 14.1212 19.1072 14.0713C19.2285 14.0213 19.3588 13.9971 19.49 14H20.995C21.1276 14 21.2548 14.0527 21.3485 14.1464C21.4423 14.2402 21.495 14.3674 21.495 14.5Z" fill="#292D32"/>
<path id="Vector_3" d="M19.48 12.95H20.5C20.7652 12.95 21.0196 12.8447 21.2071 12.6571C21.3946 12.4696 21.5 12.2152 21.5 11.95V11.51C21.4979 10.5135 21.1011 9.55831 20.3964 8.85363C19.6917 8.14895 18.7366 7.75213 17.74 7.75002H6.26001C5.44352 7.74748 4.64905 8.01465 4.00001 8.51002C3.53346 8.85856 3.15486 9.31134 2.89442 9.83222C2.63398 10.3531 2.49891 10.9277 2.50001 11.51V18.24C2.50212 19.2366 2.89894 20.1917 3.60362 20.8964C4.3083 21.6011 5.26344 21.9979 6.26001 22H17.74C18.7366 21.9979 19.6917 21.6011 20.3964 20.8964C21.1011 20.1917 21.4979 19.2366 21.5 18.24V18.05C21.5 17.7848 21.3946 17.5304 21.2071 17.3429C21.0196 17.1554 20.7652 17.05 20.5 17.05H19.63C19.158 17.0628 18.6946 16.9213 18.3103 16.647C17.9259 16.3727 17.6414 15.9806 17.5 15.53C17.4208 15.2265 17.412 14.9088 17.4742 14.6014C17.5364 14.2939 17.6681 14.0047 17.8591 13.7558C18.0501 13.5069 18.2954 13.305 18.5763 13.1653C18.8572 13.0257 19.1663 12.952 19.48 12.95ZM14 12.75H7.00001C6.80109 12.75 6.61033 12.671 6.46968 12.5303C6.32902 12.3897 6.25001 12.1989 6.25001 12C6.25001 11.8011 6.32902 11.6103 6.46968 11.4697C6.61033 11.329 6.80109 11.25 7.00001 11.25H14C14.1989 11.25 14.3897 11.329 14.5303 11.4697C14.671 11.6103 14.75 11.8011 14.75 12C14.75 12.1989 14.671 12.3897 14.5303 12.5303C14.3897 12.671 14.1989 12.75 14 12.75Z" fill="#292D32"/>
</g>
</g>
</g>
<defs>
<clipPath id="clip0_22_6">
<rect width="24" height="24" fill="white"/>
</clipPath>
</defs>
</svg>
