<svg width="24" height="24" viewBox="0 0 24 24" fill="none" xmlns="http://www.w3.org/2000/svg">
<g id="walletEmptyO" clip-path="url(#clip0_22_10)">
<g id="empty-wallet">
<g id="Group">
<path id="Vector" d="M18.04 13.55C17.8244 13.7595 17.6585 14.0147 17.5546 14.2968C17.4508 14.5789 17.4116 14.8807 17.44 15.18C17.5047 15.7038 17.7614 16.1849 18.1604 16.5303C18.5594 16.8758 19.0724 17.0609 19.6 17.05H21.5V18.24C21.4979 19.2366 21.1011 20.1917 20.3964 20.8964C19.6917 21.6011 18.7366 21.9979 17.74 22H6.26C5.26344 21.9979 4.30829 21.6011 3.60361 20.8964C2.89893 20.1917 2.50211 19.2366 2.5 18.24L2.5 11.51C2.50211 10.5134 2.89893 9.55829 3.60361 8.85361C4.30829 8.14893 5.26344 7.75211 6.26 7.75L17.74 7.75C18.7366 7.75211 19.6917 8.14893 20.3964 8.85361C21.1011 9.55829 21.4979 10.5134 21.5 11.51V12.95H19.48C19.212 12.948 18.9463 13.0002 18.6989 13.1033C18.4514 13.2063 18.2273 13.3583 18.04 13.55V13.55Z" stroke="#292D32" stroke-width="1.5" stroke-linecap="round" stroke-linejoin="round"/>
<path id="Vector_2" d="M2.50001 12.41V7.84C2.49872 7.26062 2.67416 6.69463 3.00292 6.21757C3.33169 5.7405 3.79813 5.37505 4.34001 5.17L12.28 2.17C12.5674 2.0617 12.8767 2.02468 13.1815 2.0621C13.4863 2.09952 13.7775 2.21027 14.0302 2.38486C14.2828 2.55945 14.4894 2.79267 14.6322 3.06456C14.7749 3.33645 14.8497 3.6389 14.85 3.946V7.746" stroke="#292D32" stroke-width="1.5" stroke-linecap="round" stroke-linejoin="round"/>
</g>
<path id="Vector_3" d="M22.559 13.97V16.03C22.5573 16.2966 22.452 16.552 22.2654 16.7423C22.0788 16.9327 21.8255 17.043 21.559 17.05H19.599C19.0714 17.0609 18.5584 16.8758 18.1594 16.5303C17.7604 16.1849 17.5037 15.7038 17.439 15.18C17.4106 14.8807 17.4498 14.5789 17.5536 14.2968C17.6575 14.0147 17.8233 13.7595 18.039 13.55C18.2263 13.3583 18.4504 13.2064 18.6978 13.1033C18.9453 13.0002 19.211 12.948 19.479 12.95H21.559C21.8255 12.957 22.0788 13.0673 22.2654 13.2577C22.452 13.448 22.5573 13.7035 22.559 13.97V13.97Z" stroke="#292D32" stroke-width="1.5" stroke-linecap="round" stroke-linejoin="round"/>
<path id="Vector_4" d="M7 12H14" stroke="#292D32" stroke-width="1.5" stroke-linecap="round" stroke-linejoin="round"/>
</g>
</g>
<defs>
<clipPath id="clip0_22_10">
<rect width="24" height="24" fill="white"/>
</clipPath>
</defs>
</svg>
