<svg width="24" height="24" viewBox="0 0 24 24" fill="none" xmlns="http://www.w3.org/2000/svg">
<g id="walletCheckO" clip-path="url(#clip0_22_9)">
<g id="wallet-check">
<g id="Group">
<path id="Vector" d="M9.00001 19C9.00143 19.7272 8.80062 20.4404 8.42001 21.06C8.0663 21.6514 7.56528 22.141 6.96586 22.4809C6.36644 22.8209 5.68911 22.9996 5.00001 22.9996C4.3109 22.9996 3.63357 22.8209 3.03416 22.4809C2.43474 22.141 1.93371 21.6514 1.58001 21.06C1.1994 20.4404 0.998583 19.7272 1.00001 19C1.00001 17.9391 1.42143 16.9217 2.17158 16.1716C2.92173 15.4214 3.93914 15 5.00001 15C6.06087 15 7.07829 15.4214 7.82843 16.1716C8.57858 16.9217 9.00001 17.9391 9.00001 19V19Z" stroke="#292D32" stroke-width="1.5" stroke-linecap="round" stroke-linejoin="round"/>
<path id="Vector_2" d="M3.44099 19L4.43099 19.99L6.56099 18.02" stroke="#292D32" stroke-width="1.5" stroke-linecap="round" stroke-linejoin="round"/>
</g>
<path id="Vector_3" d="M17.751 7.05001C17.5028 7.01279 17.2519 6.99606 17.001 7.00001H7.00099C6.72986 6.99934 6.45907 7.0194 6.19099 7.06001C6.34129 6.77061 6.53712 6.50725 6.77099 6.28001L10.021 3.02001C10.681 2.36658 11.5722 2.00005 12.501 2.00005C13.4297 2.00005 14.321 2.36658 14.981 3.02001L16.731 4.79001C17.3455 5.38658 17.7102 6.19452 17.751 7.05001V7.05001Z" stroke="#292D32" stroke-width="1.5" stroke-linecap="round" stroke-linejoin="round"/>
<path id="Vector_4" d="M22 12V17C22.0403 17.6671 21.9385 18.3352 21.7015 18.96C21.4644 19.5849 21.0975 20.1524 20.625 20.625C20.1524 21.0975 19.5849 21.4644 18.96 21.7015C18.3352 21.9385 17.6671 22.0403 17 22H7.63C7.94532 21.7343 8.21255 21.4163 8.42 21.06C8.80061 20.4404 9.00142 19.7272 9 19C8.99883 18.188 8.75057 17.3956 8.28821 16.7281C7.82585 16.0606 7.17128 15.5496 6.41153 15.2631C5.65177 14.9765 4.82279 14.928 4.03479 15.1239C3.24679 15.3199 2.53708 15.751 2 16.36V12C1.91994 10.7936 2.31248 9.60345 3.09453 8.68142C3.87658 7.75939 4.98674 7.17788 6.19 7.06C6.45808 7.0194 6.72886 6.99934 7 7H17C17.2509 6.99606 17.5018 7.01278 17.75 7.05C18.9649 7.15566 20.0901 7.73297 20.8845 8.65823C21.6789 9.58348 22.0794 10.7831 22 12Z" stroke="#292D32" stroke-width="1.5" stroke-linecap="round" stroke-linejoin="round"/>
<path id="Vector_5" d="M22 12.5H19C18.4696 12.5 17.9609 12.7107 17.5858 13.0858C17.2107 13.4609 17 13.9696 17 14.5C17 15.0304 17.2107 15.5391 17.5858 15.9142C17.9609 16.2893 18.4696 16.5 19 16.5H22" stroke="#292D32" stroke-width="1.5" stroke-linecap="round" stroke-linejoin="round"/>
</g>
</g>
<defs>
<clipPath id="clip0_22_9">
<rect width="24" height="24" fill="white"/>
</clipPath>
</defs>
</svg>
